0
SECTION
2
HEADER
9
$INSUNITS
70
4
9
$ACADVER
1
AC1014
9
$HANDSEED
5
FFFF
0
ENDSEC
0
SECTION
2
TABLES
0
TABLE
2
VPORT
5
8
100
AcDbSymbolTable
0
ENDTAB
0
TABLE
2
LTYPE
5
5
100
AcDbSymbolTable
0
LTYPE
5
14
100
AcDbSymbolTableRecord
100
AcDbLinetypeTableRecord
2
BYBLOCK
70
0
0
LTYPE
5
15
100
AcDbSymbolTableRecord
100
AcDbLinetypeTableRecord
2
BYLAYER
70
0
0
ENDTAB
0
TABLE
2
LAYER
5
2
100
AcDbSymbolTable
70
2
0
LAYER
5
50
100
AcDbSymbolTableRecord
100
AcDbLayerTableRecord
2
0
70
0
6
CONTINUOUS
0
ENDTAB
0
TABLE
2
STYLE
5
3
100
AcDbSymbolTable
70
1
0
STYLE
5
11
100
AcDbSymbolTableRecord
100
AcDbTextStyleTableRecord
2
STANDARD
70
0
0
ENDTAB
0
TABLE
2
VIEW
5
6
100
AcDbSymbolTable
70
0
0
ENDTAB
0
TABLE
2
UCS
5
7
100
AcDbSymbolTable
70
0
0
ENDTAB
0
TABLE
2
APPID
5
9
100
AcDbSymbolTable
70
2
0
APPID
5
12
100
AcDbSymbolTableRecord
100
AcDbRegAppTableRecord
2
ACAD
70
0
0
ENDTAB
0
TABLE
2
DIMSTYLE
5
A
100
AcDbSymbolTable
70
1
0
ENDTAB
0
TABLE
2
BLOCK_RECORD
5
1
100
AcDbSymbolTable
70
1
0
BLOCK_RECORD
5
1F
100
AcDbSymbolTableRecord
100
AcDbBlockTableRecord
2
*MODEL_SPACE
0
BLOCK_RECORD
5
1B
100
AcDbSymbolTableRecord
100
AcDbBlockTableRecord
2
*PAPER_SPACE
0
ENDTAB
0
ENDSEC
0
SECTION
2
BLOCKS
0
BLOCK
5
20
100
AcDbEntity
100
AcDbBlockBegin
2
*MODEL_SPACE
0
ENDBLK
5
21
100
AcDbEntity
100
AcDbBlockEnd
0
BLOCK
5
1C
100
AcDbEntity
100
AcDbBlockBegin
2
*PAPER_SPACE
0
ENDBLK
5
1D
100
AcDbEntity
100
AcDbBlockEnd
0
ENDSEC
0
SECTION
2
ENTITIES
0
CIRCLE
5
100
100
AcDbEntity
8
0
100
AcDbCircle
10
220
20
50
30
0
40
2.25
210
0
220
-0
230
1
0
CIRCLE
5
101
100
AcDbEntity
8
0
100
AcDbCircle
10
150
20
120
30
0
40
2.25
210
0
220
-0
230
1
0
CIRCLE
5
102
100
AcDbEntity
8
0
100
AcDbCircle
10
220
20
120
30
0
40
2.25
210
0
220
-0
230
1
0
CIRCLE
5
103
100
AcDbEntity
8
0
100
AcDbCircle
10
150
20
50
30
0
40
2.25
210
0
220
-0
230
1
0
LWPOLYLINE
5
104
100
AcDbEntity
8
0
100
AcDbPolyline
90
8
70
1
43
0.0
10
170.47631245172221
20
81.249999999999972
42
-0.49031439482586481
10
171.44455828827404
20
82.499999999999943
10
174.57167319269288
20
82.499999999999972
42
-0.32225410284773703
10
175.51970290244807
20
81.818181818181799
42
0.23498059835744367
10
181.81818181818184
20
75.519702902448088
42
-0.32225410284773859
10
182.50000000000003
20
74.571673192692884
10
182.50000000000003
20
71.444558288274038
42
-0.49031439482587491
10
181.25
20
70.47631245172218
42
-0.27284213266315593
0
LWPOLYLINE
5
105
100
AcDbEntity
8
0
100
AcDbPolyline
90
8
70
1
43
0.0
10
188.75
20
70.476312451722151
42
-0.49031439482586414
10
187.5
20
71.444558288274024
10
187.5
20
74.57167319269287
42
-0.32225410284774275
10
188.18181818181819
20
75.519702902448074
42
0.234980598357443
10
194.48029709755193
20
81.818181818181813
42
-0.3222541028477402
10
195.42832680730712
20
82.5
10
198.55544171172596
20
82.499999999999986
42
-0.49031439482587019
10
199.52368754827785
20
81.25
42
-0.2728421326631566
0
LWPOLYLINE
5
106
100
AcDbEntity
8
0
100
AcDbPolyline
90
8
70
1
43
0.0
10
199.52368754827779
20
88.75
42
-0.49031439482586481
10
198.55544171172596
20
87.500000000000014
10
195.42832680730712
20
87.500000000000028
42
-0.32225410284773703
10
194.48029709755193
20
88.181818181818201
42
0.23498059835744389
10
188.18181818181816
20
94.480297097551912
42
-0.32225410284773703
10
187.49999999999997
20
95.428326807307116
10
187.49999999999997
20
98.555441711725962
42
-0.49031439482587558
10
188.75
20
99.523687548277806
42
-0.27284213266315643
0
LWPOLYLINE
5
107
100
AcDbEntity
8
0
100
AcDbPolyline
90
8
70
1
43
0.0
10
150.18593940835268
20
81.397058823529349
42
-0.44475070788370757
10
151.1806268538283
20
82.499999999999943
10
154.19821433747714
20
82.499999999999943
42
-0.38144945387644014
10
155.19182032659077
20
81.612903225806406
42
0.34938501418744217
10
181.61290322580646
20
55.191820326590737
42
-0.38144945387643636
10
182.5
20
54.198214337477083
10
182.50000000000003
20
51.180626853828279
42
-0.44475070788369148
10
181.39705882352945
20
50.18593940835266
42
-0.35501683767075598
0
LWPOLYLINE
5
108
100
AcDbEntity
8
0
100
AcDbPolyline
90
8
70
1
43
0.0
10
188.60294117647069
20
50.185939408352631
42
-0.4447507078837179
10
187.5
20
51.180626853828301
10
187.5
20
54.198214337477125
42
-0.38144945387644014
10
188.38709677419357
20
55.191820326590744
42
0.34938501418744217
10
214.80817967340928
20
81.612903225806434
42
-0.38144945387644758
10
215.80178566252295
20
82.499999999999986
10
218.81937314617173
20
82.5
42
-0.44475070788369642
10
219.81406059164738
20
81.39705882352942
42
-0.35501683767075576
0
LWPOLYLINE
5
109
100
AcDbEntity
8
0
100
AcDbPolyline
90
8
70
1
43
0.0
10
219.81406059164732
20
88.602941176470637
42
-0.44475070788370707
10
218.8193731461717
20
87.500000000000014
10
215.80178566252286
20
87.500000000000014
42
-0.38144945387644524
10
214.80817967340923
20
88.387096774193566
42
0.3493850141874425
10
188.38709677419354
20
114.80817967340924
42
-0.38144945387643575
10
187.5
20
115.80178566252289
10
187.5
20
118.8193731461717
42
-0.44475070788369175
10
188.60294117647055
20
119.81406059164735
42
-0.35501683767075609
0
LWPOLYLINE
5
110
100
AcDbEntity
8
0
100
AcDbPolyline
90
8
70
1
43
0.0
10
160.26727068628384
20
81.3541666666666
42
-0.45775942210917964
10
161.25657985883248
20
82.499999999999943
10
164.29372075915131
20
82.499999999999972
42
-0.36597738186304657
10
165.2797340563346
20
81.6666666666666
42
0.31919774706129017
10
181.66666666666671
20
65.279734056334604
42
-0.36597738186303658
10
182.50000000000003
20
64.293720759151327
10
182.5
20
61.256579858832474
42
-0.45775942210916903
10
181.35416666666671
20
60.267270686283794
42
-0.33085838801350193
0
LWPOLYLINE
5
111
100
AcDbEntity
8
0
100
AcDbPolyline
90
8
70
1
43
0.0
10
188.64583333333337
20
60.267270686283794
42
-0.45775942210918008
10
187.5
20
61.256579858832453
10
187.50000000000003
20
64.293720759151313
42
-0.36597738186305112
10
188.33333333333337
20
65.27973405633459
42
0.31919774706129017
10
204.7202659436654
20
81.666666666666686
42
-0.36597738186304163
10
205.70627924084869
20
82.5
10
208.74342014116752
20
82.5
42
-0.45775942210916903
10
209.73272931371622
20
81.3541666666667
42
-0.33085838801350215
0
LWPOLYLINE
5
112
100
AcDbEntity
8
0
100
AcDbPolyline
90
8
70
1
43
0.0
10
209.73272931371616
20
88.645833333333357
42
-0.45775942210917964
10
208.74342014116752
20
87.500000000000014
10
205.70627924084869
20
87.5
42
-0.36597738186304657
10
204.7202659436654
20
88.333333333333357
42
0.31919774706129073
10
188.33333333333329
20
104.7202659436654
42
-0.36597738186303658
10
187.49999999999997
20
105.70627924084867
10
187.5
20
108.74342014116752
42
-0.45775942210916903
10
188.64583333333331
20
109.73272931371619
42
-0.33085838801350231
0
LWPOLYLINE
5
113
100
AcDbEntity
8
0
100
AcDbPolyline
90
8
70
1
43
0.0
10
150.18593940835262
20
88.602941176470566
42
-0.35501683767075615
10
181.39705882352933
20
119.81406059164735
42
-0.44475070788370713
10
182.5
20
118.81937314617169
10
182.5
20
115.80178566252286
42
-0.38144945387644014
10
181.61290322580643
20
114.80817967340924
42
0.34938501418744217
10
155.19182032659074
20
88.387096774193566
42
-0.38144945387645091
10
154.19821433747711
20
87.5
10
151.1806268538283
20
87.499999999999986
42
-0.44475070788369642
0
LWPOLYLINE
5
114
100
AcDbEntity
8
0
100
AcDbPolyline
90
8
70
1
43
0.0
10
160.26727068628384
20
88.645833333333286
42
-0.33085838801350265
10
181.35416666666669
20
109.73272931371619
42
-0.45775942210916903
10
182.5
20
108.74342014116752
10
182.5
20
105.70627924084867
42
-0.36597738186305162
10
181.66666666666663
20
104.72026594366538
42
0.31919774706129034
10
165.2797340563346
20
88.3333333333333
42
-0.36597738186304329
10
164.29372075915131
20
87.499999999999986
10
161.25657985883248
20
87.500000000000014
42
-0.45775942210917053
0
LWPOLYLINE
5
115
100
AcDbEntity
8
0
100
AcDbPolyline
90
8
70
1
43
0.0
10
170.47631245172215
20
88.749999999999986
42
-0.27284213266315688
10
181.25
20
99.523687548277849
42
-0.49031439482586342
10
182.5
20
98.555441711725962
10
182.5
20
95.428326807307116
42
-0.32225410284774347
10
181.81818181818181
20
94.480297097551897
42
0.23498059835744325
10
175.51970290244807
20
88.181818181818159
42
-0.3222541028477402
10
174.57167319269288
20
87.499999999999986
10
171.44455828827404
20
87.5
42
-0.49031439482587019
0
LWPOLYLINE
5
116
100
AcDbEntity
8
0
100
AcDbPolyline
90
8
70
1
43
0.0
10
-281.50000000999989
20
15.499999989999919
10
-284.50000000999984
20
18.499999989999907
10
-284.50000000999984
20
897.49999999993747
10
-278.50000000999989
20
903.49999999993747
10
277.50000001000001
20
903.49999999993747
10
283.50000001000001
20
897.49999999993747
10
283.50000001000001
20
18.499999989999871
10
280.50000001000001
20
15.499999989999839
0
ENDSEC
0
SECTION
2
OBJECTS
0
DICTIONARY
5
C
100
AcDbDictionary
3
ACAD_GROUP
350
D
3
ACAD_MLINESTYLE
350
17
0
DICTIONARY
5
D
100
AcDbDictionary
0
DICTIONARY
5
1A
330
C
100
AcDbDictionary
0
DICTIONARY
5
17
100
AcDbDictionary
0
ENDSEC
0
EOF
